<svg xmlns="http://www.w3.org/2000/svg" viewBox="0 0 64 64">
  <rect width="64" height="64" rx="14" fill="#070b12"/>
  <path d="M32 8 52 16v15c0 13-8.5 21.5-20 26C20.5 52.5 12 44 12 31V16l20-8Z" fill="#0e1d28" stroke="#22d3ee" stroke-width="4"/>
  <path d="M21 25c0-5 4-8 11-8 5 0 8 1.5 11 4l-5 5c-2-1.5-4-2-6-2-2.5 0-4 .7-4 2 0 1.2 1 1.8 5.5 2.8C41 30.5 44 33.5 44 39c0 5.5-4.5 9-12 9-6 0-10-2-13-5l5-5c2.5 2 5 3 8 3 3 0 4.5-.8 4.5-2.3 0-1.4-1.3-2.2-5.8-3.2C24 34 21 31 21 25Z" fill="#e8eef7"/>
</svg>
